<?xml version="1.0" encoding="UTF-8"?>
<!DOCTYPE svg PUBLIC "-//W3C//DTD SVG 1.1//EN" "http://www.w3.org/Graphics/SVG/1.1/DTD/svg11.dtd">
<svg xmlns="http://www.w3.org/2000/svg" version="1.1" width="285px" height="177px" style="shape-rendering:geometricPrecision; text-rendering:geometricPrecision; image-rendering:optimizeQuality; fill-rule:evenodd; clip-rule:evenodd" xmlns:xlink="http://www.w3.org/1999/xlink">
<g><path style="opacity:1" fill="#065c95" d="M 125.5,-0.5 C 126.833,-0.5 128.167,-0.5 129.5,-0.5C 131.782,3.89278 134.448,8.05944 137.5,12C 141.833,12.6667 146.167,12.6667 150.5,12C 153.167,8.33333 155.833,4.66667 158.5,1C 164.127,0.875185 169.294,2.37518 174,5.5C 174.193,10.7503 174.693,15.917 175.5,21C 179.031,22.5962 182.364,24.4296 185.5,26.5C 190.054,24.6401 194.554,22.6401 199,20.5C 202.62,23.1168 205.953,26.1168 209,29.5C 209.667,30.8333 209.667,32.1667 209,33.5C 206.613,36.9403 204.78,40.607 203.5,44.5C 204.312,48.9578 206.312,52.7911 209.5,56C 214.21,56.3751 218.877,57.0418 223.5,58C 226.316,62.4057 227.482,67.2391 227,72.5C 223,75.1667 219,77.8333 215,80.5C 214.333,84.8333 214.333,89.1667 215,93.5C 217.906,96.0373 221.073,98.204 224.5,100C 225.944,101.126 226.61,102.626 226.5,104.5C 225.902,109.133 224.236,113.3 221.5,117C 216.833,117.333 212.167,117.667 207.5,118C 202.889,122.013 201.222,126.847 202.5,132.5C 204.852,135.852 206.019,139.518 206,143.5C 203.194,146.306 200.36,149.14 197.5,152C 192.972,151.855 188.972,150.188 185.5,147C 180.09,146.941 175.257,148.774 171,152.5C 170.712,157.601 169.878,162.601 168.5,167.5C 164.734,168.733 160.901,169.733 157,170.5C 155.289,170.561 153.956,169.894 153,168.5C 150.959,164.916 148.792,161.416 146.5,158C 142.167,157.333 137.833,157.333 133.5,158C 130.833,161.667 128.167,165.333 125.5,169C 111.64,170.468 106.14,164.301 109,150.5C 105.983,147.577 102.483,145.577 98.5,144.5C 94.6264,145.435 90.9597,146.935 87.5,149C 86.1667,149.667 84.8333,149.667 83.5,149C 80.114,146.737 77.2807,143.903 75,140.5C 75.1454,135.972 76.8121,131.972 80,128.5C 80.0593,123.09 78.226,118.257 74.5,114C 69.3859,113.891 64.3859,113.224 59.5,112C 57.9697,108.168 56.9697,104.168 56.5,100C 56.4393,98.2894 57.1059,96.956 58.5,96C 62.4192,94.4597 65.9192,92.2931 69,89.5C 69.6667,85.1667 69.6667,80.8333 69,76.5C 65.3333,73.8333 61.6667,71.1667 58,68.5C 57.3653,63.2062 58.532,58.3729 61.5,54C 66.1667,53.6667 70.8333,53.3333 75.5,53C 78.9112,49.77 81.2445,45.9367 82.5,41.5C 81.5651,37.6264 80.0651,33.9597 78,30.5C 77.3333,29.1667 77.3333,27.8333 78,26.5C 80.8333,23.6667 83.6667,20.8333 86.5,18C 87.8333,17.3333 89.1667,17.3333 90.5,18C 94.0898,21.1285 98.0898,23.1285 102.5,24C 106.419,22.4597 109.919,20.2931 113,17.5C 113.333,13.1667 113.667,8.83333 114,4.5C 114.833,3.66667 115.667,2.83333 116.5,2C 119.742,1.59388 122.742,0.760546 125.5,-0.5 Z"/></g>
<g><path style="opacity:1" fill="#f6f6f6" d="M 129.5,-0.5 C 181.167,-0.5 232.833,-0.5 284.5,-0.5C 284.5,47.8333 284.5,96.1667 284.5,144.5C 282.5,144.5 280.5,144.5 278.5,144.5C 278.5,142.5 278.5,140.5 278.5,138.5C 276.167,138.5 273.833,138.5 271.5,138.5C 271.5,140.5 271.5,142.5 271.5,144.5C 269.5,144.5 267.5,144.5 265.5,144.5C 265.5,142.5 265.5,140.5 265.5,138.5C 263.5,138.5 261.5,138.5 259.5,138.5C 259.5,140.5 259.5,142.5 259.5,144.5C 257.167,144.5 254.833,144.5 252.5,144.5C 252.5,146.833 252.5,149.167 252.5,151.5C 250.5,151.5 248.5,151.5 246.5,151.5C 246.5,149.167 246.5,146.833 246.5,144.5C 244.5,144.5 242.5,144.5 240.5,144.5C 240.5,142.5 240.5,140.5 240.5,138.5C 238.167,138.5 235.833,138.5 233.5,138.5C 233.5,140.5 233.5,142.5 233.5,144.5C 231.5,144.5 229.5,144.5 227.5,144.5C 227.5,142.5 227.5,140.5 227.5,138.5C 225.5,138.5 223.5,138.5 221.5,138.5C 221.5,140.5 221.5,142.5 221.5,144.5C 219.167,144.5 216.833,144.5 214.5,144.5C 214.5,142.5 214.5,140.5 214.5,138.5C 212.5,138.5 210.5,138.5 208.5,138.5C 208.5,136.5 208.5,134.5 208.5,132.5C 206.5,132.5 204.5,132.5 202.5,132.5C 201.222,126.847 202.889,122.013 207.5,118C 212.167,117.667 216.833,117.333 221.5,117C 224.236,113.3 225.902,109.133 226.5,104.5C 226.61,102.626 225.944,101.126 224.5,100C 221.073,98.204 217.906,96.0373 215,93.5C 214.333,89.1667 214.333,84.8333 215,80.5C 219,77.8333 223,75.1667 227,72.5C 227.482,67.2391 226.316,62.4057 223.5,58C 218.877,57.0418 214.21,56.3751 209.5,56C 206.312,52.7911 204.312,48.9578 203.5,44.5C 204.78,40.607 206.613,36.9403 209,33.5C 209.667,32.1667 209.667,30.8333 209,29.5C 205.953,26.1168 202.62,23.1168 199,20.5C 194.554,22.6401 190.054,24.6401 185.5,26.5C 182.364,24.4296 179.031,22.5962 175.5,21C 174.693,15.917 174.193,10.7503 174,5.5C 169.294,2.37518 164.127,0.875185 158.5,1C 155.833,4.66667 153.167,8.33333 150.5,12C 146.167,12.6667 141.833,12.6667 137.5,12C 134.448,8.05944 131.782,3.89278 129.5,-0.5 Z"/></g>
<g><path style="opacity:1" fill="#eff1f2" d="M 132.5,32.5 C 163.841,30.0771 184.341,43.7438 194,73.5C 197.929,105.885 184.429,127.052 153.5,137C 128.211,140.77 108.711,131.936 95,110.5C 82.5727,82.1159 88.7394,58.6159 113.5,40C 119.604,36.5833 125.937,34.0833 132.5,32.5 Z"/></g>
<g><path style="opacity:1" fill="#043a64" d="M 133.5,40.5 C 159.827,38.403 177.327,49.7364 186,74.5C 189.765,102.494 178.265,120.661 151.5,129C 123.903,132.371 106.069,120.871 98,94.5C 94.8475,66.5102 106.681,48.5102 133.5,40.5 Z"/></g>
<g><path style="opacity:1" fill="#f4f5f5" d="M 135.5,50.5 C 163.005,50.5037 176.505,64.1704 176,91.5C 169.748,112.046 155.914,121.213 134.5,119C 110.651,110.135 102.818,93.6351 111,69.5C 116.712,59.9058 124.879,53.5725 135.5,50.5 Z"/></g>
<g><path style="opacity:1" fill="#f5f5f5" d="M -0.5,-0.5 C 41.5,-0.5 83.5,-0.5 125.5,-0.5C 122.742,0.760546 119.742,1.59388 116.5,2C 115.667,2.83333 114.833,3.66667 114,4.5C 113.667,8.83333 113.333,13.1667 113,17.5C 109.919,20.2931 106.419,22.4597 102.5,24C 98.0898,23.1285 94.0898,21.1285 90.5,18C 89.1667,17.3333 87.8333,17.3333 86.5,18C 83.6667,20.8333 80.8333,23.6667 78,26.5C 77.3333,27.8333 77.3333,29.1667 78,30.5C 80.0651,33.9597 81.5651,37.6264 82.5,41.5C 81.2445,45.9367 78.9112,49.77 75.5,53C 70.8333,53.3333 66.1667,53.6667 61.5,54C 58.532,58.3729 57.3653,63.2062 58,68.5C 61.6667,71.1667 65.3333,73.8333 69,76.5C 69.6667,80.8333 69.6667,85.1667 69,89.5C 65.9192,92.2931 62.4192,94.4597 58.5,96C 57.1059,96.956 56.4393,98.2894 56.5,100C 56.9697,104.168 57.9697,108.168 59.5,112C 64.3859,113.224 69.3859,113.891 74.5,114C 78.226,118.257 80.0593,123.09 80,128.5C 76.8121,131.972 75.1454,135.972 75,140.5C 77.2807,143.903 80.114,146.737 83.5,149C 84.8333,149.667 86.1667,149.667 87.5,149C 90.9597,146.935 94.6264,145.435 98.5,144.5C 102.483,145.577 105.983,147.577 109,150.5C 106.14,164.301 111.64,170.468 125.5,169C 128.167,165.333 130.833,161.667 133.5,158C 137.833,157.333 142.167,157.333 146.5,158C 148.792,161.416 150.959,164.916 153,168.5C 153.956,169.894 155.289,170.561 157,170.5C 160.901,169.733 164.734,168.733 168.5,167.5C 169.878,162.601 170.712,157.601 171,152.5C 175.257,148.774 180.09,146.941 185.5,147C 188.972,150.188 192.972,151.855 197.5,152C 200.36,149.14 203.194,146.306 206,143.5C 206.019,139.518 204.852,135.852 202.5,132.5C 204.5,132.5 206.5,132.5 208.5,132.5C 208.5,134.5 208.5,136.5 208.5,138.5C 210.5,138.5 212.5,138.5 214.5,138.5C 214.5,140.5 214.5,142.5 214.5,144.5C 216.833,144.5 219.167,144.5 221.5,144.5C 221.5,142.5 221.5,140.5 221.5,138.5C 223.5,138.5 225.5,138.5 227.5,138.5C 227.5,140.5 227.5,142.5 227.5,144.5C 229.5,144.5 231.5,144.5 233.5,144.5C 233.5,142.5 233.5,140.5 233.5,138.5C 235.833,138.5 238.167,138.5 240.5,138.5C 240.5,140.5 240.5,142.5 240.5,144.5C 242.5,144.5 244.5,144.5 246.5,144.5C 246.5,146.833 246.5,149.167 246.5,151.5C 248.5,151.5 250.5,151.5 252.5,151.5C 252.5,149.167 252.5,146.833 252.5,144.5C 254.833,144.5 257.167,144.5 259.5,144.5C 259.5,142.5 259.5,140.5 259.5,138.5C 261.5,138.5 263.5,138.5 265.5,138.5C 265.5,140.5 265.5,142.5 265.5,144.5C 267.5,144.5 269.5,144.5 271.5,144.5C 271.5,142.5 271.5,140.5 271.5,138.5C 273.833,138.5 276.167,138.5 278.5,138.5C 278.5,140.5 278.5,142.5 278.5,144.5C 280.5,144.5 282.5,144.5 284.5,144.5C 284.5,155.167 284.5,165.833 284.5,176.5C 189.5,176.5 94.5,176.5 -0.5,176.5C -0.5,117.5 -0.5,58.5 -0.5,-0.5 Z"/></g>
</svg>
